<svg width="292" height="40" viewBox="0 0 292 40" fill="none" xmlns="http://www.w3.org/2000/svg">
<path d="M0 1.52381V37.8231H4.02722V1.52381H0ZM30.122 37.8231V9.79588L58.4213 39.4558V1.52381H54.3941V29.6599L26.0948 0V37.8231H30.122ZM76.2185 1.52381L90.9124 40L105.606 1.52381H101.144L90.9124 29.2245L80.6811 1.52381H76.2185ZM123.406 1.52381V37.8231H127.433V1.52381H123.406Z" fill="#0C2134"/>
<path d="M218.159 24.4898H227.519C226.92 27.102 225.505 28.9523 224.091 30.0408C222.077 31.5646 219.356 32.2177 216.961 32.2177C213.097 32.2177 210.539 30.6938 208.907 29.1156C207.383 27.6462 205.315 24.7619 205.315 19.9183C205.315 15.8367 206.893 12.3537 208.961 10.3401C211.193 8.16325 214.458 7.12923 217.342 7.12923C219.029 7.12923 220.934 7.51019 222.458 8.27209C223.601 8.87073 225.451 10.1224 226.703 12.5714L232.852 9.25164C230.948 5.98638 228.39 3.8095 226.05 2.61222C223.274 1.14283 220.39 0.707458 217.669 0.707458C210.648 0.707458 206.077 3.48297 203.356 6.25849C201.179 8.43536 198.022 12.7346 198.022 19.7551C198.022 27.9183 202.159 32.4898 203.41 33.7415C207.383 37.7143 212.063 38.6394 216.58 38.6394C221.097 38.6394 225.723 37.6054 229.478 33.8503C234.485 28.8979 234.812 21.2789 234.812 18.8299V18.3945H218.159V24.4898ZM271.659 0.707458C260.23 0.707458 252.285 8.65305 252.285 19.7006C252.285 30.7483 260.23 38.6394 271.659 38.6394C283.087 38.6394 291.033 30.7483 291.033 19.7006C291.033 8.65305 283.087 0.707458 271.659 0.707458ZM271.659 32.2177C264.584 32.2177 259.577 27.0476 259.577 19.7006C259.577 12.3537 264.584 7.12923 271.659 7.12923C278.733 7.12923 283.74 12.3537 283.74 19.7006C283.74 27.0476 278.733 32.2177 271.659 32.2177Z" fill="#397FED"/>
<path d="M159.921 23.4013H149.146C149.255 25.687 149.962 27.4285 150.615 28.5714C152.683 32.2177 156.874 34.6667 161.717 34.6667C168.574 34.6667 176.466 29.6598 176.466 19.7551C176.466 11.3197 170.37 4.73464 161.608 4.73464C157.255 4.73464 154.534 6.36729 152.792 7.78226C151.595 8.76186 150.397 10.068 149.363 11.5374L146.37 8.81628C147.404 7.40131 148.928 5.76865 150.561 4.51695C154.098 1.79586 158.18 0.92511 161.663 0.92511C172.493 0.92511 180.602 9.14281 180.602 19.7006C180.602 30.2585 172.547 38.4762 161.772 38.4762C153.445 38.4762 149.363 33.415 148.275 31.9456C145.989 28.8435 144.792 24.4898 144.792 20.4626V19.5918H159.921V23.4013Z" fill="#0C2134"/>
</svg>
